<svg width="120" height="20" viewBox="0 0 120 20" fill="none" xmlns="http://www.w3.org/2000/svg">
<path d="M17.2542 0L20 2.74576L12.7458 10L10 7.25424L17.2542 0Z" fill="#222222"/>
<path d="M2.74575 20L0 17.2542L7.25423 10L10 12.7458L2.74575 20Z" fill="#222222"/>
<path d="M0 2.74576L2.74575 0L10 7.25424L7.25423 10L0 2.74576Z" fill="#222222"/>
<path d="M20 17.2542L17.2542 20L10 12.7458L12.7458 10L20 17.2542Z" fill="#222222"/>
<path d="M35.0615 8.40233C34.9915 8.40233 34.9293 8.37901 34.8749 8.33236C34.8282 8.27794 34.8049 8.21574 34.8049 8.14577V8.06414C34.8049 7.93197 34.7582 7.82313 34.6649 7.73761C34.5794 7.64431 34.4706 7.59767 34.3384 7.59767H32.0642C31.9321 7.59767 31.8232 7.64431 31.7377 7.73761C31.6522 7.82313 31.6094 7.93197 31.6094 8.06414V11.9359C31.6094 12.068 31.6522 12.1808 31.7377 12.2741C31.8232 12.3596 31.9321 12.4023 32.0642 12.4023H34.3384C34.4706 12.4023 34.5794 12.3596 34.6649 12.2741C34.7582 12.1808 34.8049 12.068 34.8049 11.9359V11.8542C34.8049 11.7843 34.8282 11.7259 34.8749 11.6793C34.9293 11.6249 34.9915 11.5977 35.0615 11.5977H36.1461C36.216 11.5977 36.2743 11.6249 36.321 11.6793C36.3754 11.7259 36.4026 11.7843 36.4026 11.8542V11.9359C36.4026 12.2235 36.3482 12.4917 36.2394 12.7405C36.1305 12.9893 35.9828 13.207 35.7962 13.3936C35.6096 13.5802 35.3919 13.7279 35.1431 13.8367C34.8943 13.9456 34.6261 14 34.3384 14H32.0642C31.7843 14 31.5161 13.9456 31.2595 13.8367C31.0107 13.7279 30.793 13.5802 30.6064 13.3936C30.4198 13.207 30.2721 12.9893 30.1633 12.7405C30.0544 12.4917 30 12.2235 30 11.9359V8.06414C30 7.77648 30.0544 7.50826 30.1633 7.25948C30.2721 7.01069 30.4198 6.793 30.6064 6.60641C30.793 6.41983 31.0107 6.27211 31.2595 6.16327C31.5161 6.05442 31.7843 6 32.0642 6H34.3384C34.6261 6 34.8943 6.05442 35.1431 6.16327C35.3919 6.27211 35.6096 6.41983 35.7962 6.60641C35.9828 6.793 36.1305 7.01069 36.2394 7.25948C36.3482 7.50826 36.4026 7.77648 36.4026 8.06414V8.14577C36.4026 8.21574 36.3754 8.27794 36.321 8.33236C36.2743 8.37901 36.216 8.40233 36.1461 8.40233H35.0615Z" fill="#222222"/>
<path d="M46.7502 13.7668C46.7813 13.829 46.7813 13.8834 46.7502 13.93C46.7191 13.9767 46.6686 14 46.5986 14H45.3507C45.2808 14 45.2108 13.9767 45.1408 13.93C45.0786 13.8834 45.032 13.829 45.0009 13.7668L43.6597 10.8047H42.0736V13.7434C42.0736 13.8134 42.0464 13.8756 41.992 13.93C41.9453 13.9767 41.887 14 41.817 14H40.7208C40.6508 14 40.5886 13.9767 40.5342 13.93C40.4875 13.8756 40.4642 13.8134 40.4642 13.7434V6.25656C40.4642 6.18659 40.4875 6.12828 40.5342 6.08163C40.5886 6.02721 40.6508 6 40.7208 6H44.8026C45.0903 6 45.3585 6.05442 45.6073 6.16327C45.8561 6.27211 46.0738 6.41983 46.2604 6.60641C46.447 6.793 46.5947 7.01069 46.7036 7.25948C46.8124 7.50826 46.8668 7.77648 46.8668 8.06414V8.74052C46.8668 8.97376 46.828 9.19922 46.7502 9.41691C46.6802 9.62682 46.5792 9.82119 46.447 10C46.3148 10.171 46.1554 10.3188 45.9688 10.4431C45.79 10.5675 45.5918 10.6608 45.3741 10.723L46.7502 13.7668ZM44.8026 9.207C44.9348 9.207 45.0436 9.16424 45.1291 9.07872C45.2224 8.98542 45.2691 8.87269 45.2691 8.74052V8.06414C45.2691 7.93197 45.2224 7.82313 45.1291 7.73761C45.0436 7.64431 44.9348 7.59767 44.8026 7.59767H42.0736V9.207H44.8026Z" fill="#222222"/>
<path d="M55.2668 6.01166C55.5545 6.01166 55.8227 6.06608 56.0715 6.17493C56.3203 6.28377 56.538 6.43149 56.7246 6.61808C56.9112 6.80466 57.0589 7.02235 57.1678 7.27114C57.2766 7.51992 57.3311 7.78426 57.3311 8.06414V11.9475C57.3311 12.2274 57.2766 12.4917 57.1678 12.7405C57.0589 12.9893 56.9112 13.207 56.7246 13.3936C56.538 13.5802 56.3203 13.7279 56.0715 13.8367C55.8227 13.9456 55.5545 14 55.2668 14H52.9927C52.705 14 52.4368 13.9456 52.188 13.8367C51.9392 13.7279 51.7215 13.5802 51.5349 13.3936C51.3483 13.207 51.2006 12.9893 51.0917 12.7405C50.9829 12.4917 50.9284 12.2274 50.9284 11.9475V8.06414C50.9284 7.78426 50.9829 7.51992 51.0917 7.27114C51.2006 7.02235 51.3483 6.80466 51.5349 6.61808C51.7215 6.43149 51.9392 6.28377 52.188 6.17493C52.4368 6.06608 52.705 6.01166 52.9927 6.01166H55.2668ZM55.7333 8.06414C55.7333 7.93197 55.6867 7.82313 55.5934 7.73761C55.5078 7.65209 55.399 7.60933 55.2668 7.60933H52.9927C52.8605 7.60933 52.7478 7.65209 52.6545 7.73761C52.5689 7.82313 52.5262 7.93197 52.5262 8.06414V11.9475C52.5262 12.0797 52.5689 12.1885 52.6545 12.2741C52.7478 12.3596 52.8605 12.4023 52.9927 12.4023H55.2668C55.399 12.4023 55.5078 12.3596 55.5934 12.2741C55.6867 12.1885 55.7333 12.0797 55.7333 11.9475V8.06414Z" fill="#222222"/>
<path d="M66.4424 8.40233C66.3725 8.40233 66.3103 8.37901 66.2558 8.33236C66.2092 8.27794 66.1859 8.21574 66.1859 8.14577V8.06414C66.1859 7.93197 66.1431 7.82313 66.0576 7.73761C65.9721 7.64431 65.8632 7.59767 65.731 7.59767H63.4452C63.3208 7.59767 63.212 7.64431 63.1187 7.73761C63.0331 7.82313 62.9904 7.93197 62.9904 8.06414V8.74052C62.9904 8.87269 63.0331 8.98542 63.1187 9.07872C63.212 9.16424 63.3208 9.207 63.4452 9.207H65.731C66.0109 9.207 66.2753 9.26142 66.5241 9.37026C66.7729 9.47911 66.9906 9.62682 67.1772 9.81341C67.3638 10 67.5115 10.2177 67.6203 10.4665C67.7292 10.7153 67.7836 10.9796 67.7836 11.2595V11.9359C67.7836 12.2235 67.7292 12.4917 67.6203 12.7405C67.5115 12.9893 67.3638 13.207 67.1772 13.3936C66.9906 13.5802 66.7729 13.7279 66.5241 13.8367C66.2753 13.9456 66.0109 14 65.731 14H63.4452C63.1653 14 62.901 13.9456 62.6522 13.8367C62.4034 13.7279 62.1857 13.5802 61.9991 13.3936C61.8125 13.207 61.6648 12.9893 61.5559 12.7405C61.4471 12.4917 61.3926 12.2235 61.3926 11.9359V11.8542C61.3926 11.7843 61.416 11.7259 61.4626 11.6793C61.517 11.6249 61.5792 11.5977 61.6492 11.5977H62.7338C62.8038 11.5977 62.8621 11.6249 62.9088 11.6793C62.9632 11.7259 62.9904 11.7843 62.9904 11.8542V11.9359C62.9904 12.068 63.0331 12.1808 63.1187 12.2741C63.212 12.3596 63.3208 12.4023 63.4452 12.4023H65.731C65.8632 12.4023 65.9721 12.3596 66.0576 12.2741C66.1431 12.1808 66.1859 12.068 66.1859 11.9359V11.2595C66.1859 11.1273 66.1431 11.0185 66.0576 10.9329C65.9721 10.8474 65.8632 10.8047 65.731 10.8047H63.4452C63.1653 10.8047 62.901 10.7502 62.6522 10.6414C62.4034 10.5326 62.1857 10.3848 61.9991 10.1983C61.8125 10.0117 61.6648 9.79397 61.5559 9.54519C61.4471 9.28863 61.3926 9.02041 61.3926 8.74052V8.06414C61.3926 7.77648 61.4471 7.50826 61.5559 7.25948C61.6648 7.01069 61.8125 6.793 61.9991 6.60641C62.1857 6.41983 62.4034 6.27211 62.6522 6.16327C62.901 6.05442 63.1653 6 63.4452 6H65.731C66.0109 6 66.2753 6.05442 66.5241 6.16327C66.7729 6.27211 66.9906 6.41983 67.1772 6.60641C67.3638 6.793 67.5115 7.01069 67.6203 7.25948C67.7292 7.50826 67.7836 7.77648 67.7836 8.06414V8.14577C67.7836 8.21574 67.7603 8.27794 67.7136 8.33236C67.667 8.37901 67.6087 8.40233 67.5387 8.40233H66.4424Z" fill="#222222"/>
<path d="M76.9067 8.40233C76.8367 8.40233 76.7745 8.37901 76.7201 8.33236C76.6734 8.27794 76.6501 8.21574 76.6501 8.14577V8.06414C76.6501 7.93197 76.6073 7.82313 76.5218 7.73761C76.4363 7.64431 76.3274 7.59767 76.1953 7.59767H73.9094C73.785 7.59767 73.6762 7.64431 73.5829 7.73761C73.4974 7.82313 73.4546 7.93197 73.4546 8.06414V8.74052C73.4546 8.87269 73.4974 8.98542 73.5829 9.07872C73.6762 9.16424 73.785 9.207 73.9094 9.207H76.1953C76.4751 9.207 76.7395 9.26142 76.9883 9.37026C77.2371 9.47911 77.4548 9.62682 77.6414 9.81341C77.828 10 77.9757 10.2177 78.0845 10.4665C78.1934 10.7153 78.2478 10.9796 78.2478 11.2595V11.9359C78.2478 12.2235 78.1934 12.4917 78.0845 12.7405C77.9757 12.9893 77.828 13.207 77.6414 13.3936C77.4548 13.5802 77.2371 13.7279 76.9883 13.8367C76.7395 13.9456 76.4751 14 76.1953 14H73.9094C73.6295 14 73.3652 13.9456 73.1164 13.8367C72.8676 13.7279 72.6499 13.5802 72.4633 13.3936C72.2767 13.207 72.129 12.9893 72.0201 12.7405C71.9113 12.4917 71.8569 12.2235 71.8569 11.9359V11.8542C71.8569 11.7843 71.8802 11.7259 71.9268 11.6793C71.9813 11.6249 72.0435 11.5977 72.1134 11.5977H73.198C73.268 11.5977 73.3263 11.6249 73.373 11.6793C73.4274 11.7259 73.4546 11.7843 73.4546 11.8542V11.9359C73.4546 12.068 73.4974 12.1808 73.5829 12.2741C73.6762 12.3596 73.785 12.4023 73.9094 12.4023H76.1953C76.3274 12.4023 76.4363 12.3596 76.5218 12.2741C76.6073 12.1808 76.6501 12.068 76.6501 11.9359V11.2595C76.6501 11.1273 76.6073 11.0185 76.5218 10.9329C76.4363 10.8474 76.3274 10.8047 76.1953 10.8047H73.9094C73.6295 10.8047 73.3652 10.7502 73.1164 10.6414C72.8676 10.5326 72.6499 10.3848 72.4633 10.1983C72.2767 10.0117 72.129 9.79397 72.0201 9.54519C71.9113 9.28863 71.8569 9.02041 71.8569 8.74052V8.06414C71.8569 7.77648 71.9113 7.50826 72.0201 7.25948C72.129 7.01069 72.2767 6.793 72.4633 6.60641C72.6499 6.41983 72.8676 6.27211 73.1164 6.16327C73.3652 6.05442 73.6295 6 73.9094 6H76.1953C76.4751 6 76.7395 6.05442 76.9883 6.16327C77.2371 6.27211 77.4548 6.41983 77.6414 6.60641C77.828 6.793 77.9757 7.01069 78.0845 7.25948C78.1934 7.50826 78.2478 7.77648 78.2478 8.06414V8.14577C78.2478 8.21574 78.2245 8.27794 78.1778 8.33236C78.1312 8.37901 78.0729 8.40233 78.0029 8.40233H76.9067Z" fill="#222222"/>
<path d="M86.6595 6C86.9394 6 87.2037 6.05442 87.4525 6.16327C87.7013 6.27211 87.919 6.41983 88.1056 6.60641C88.2922 6.793 88.4399 7.01069 88.5488 7.25948C88.6576 7.50826 88.712 7.77648 88.712 8.06414V8.74052C88.712 8.98154 88.6732 9.207 88.5954 9.41691C88.5177 9.62682 88.4127 9.82119 88.2805 10C88.4127 10.1788 88.5177 10.3732 88.5954 10.5831C88.6732 10.793 88.712 11.0185 88.712 11.2595V11.9359C88.712 12.2235 88.6576 12.4917 88.5488 12.7405C88.4399 12.9893 88.2922 13.207 88.1056 13.3936C87.919 13.5802 87.7013 13.7279 87.4525 13.8367C87.2037 13.9456 86.9394 14 86.6595 14H82.566C82.496 14 82.4377 13.9767 82.391 13.93C82.3444 13.8756 82.3211 13.8134 82.3211 13.7434V6.25656C82.3211 6.18659 82.3444 6.12828 82.391 6.08163C82.4377 6.02721 82.496 6 82.566 6H86.6595ZM83.9188 9.19534H86.6595C86.7839 9.19534 86.8888 9.15258 86.9743 9.06706C87.0676 8.98154 87.1143 8.87269 87.1143 8.74052V8.06414C87.1143 7.93197 87.0676 7.82313 86.9743 7.73761C86.8888 7.64431 86.7839 7.59767 86.6595 7.59767H83.9188V9.19534ZM87.1143 11.2595C87.1143 11.1273 87.0676 11.0185 86.9743 10.9329C86.8888 10.8474 86.7839 10.8047 86.6595 10.8047H83.9188V12.4023H86.6595C86.7839 12.4023 86.8888 12.3596 86.9743 12.2741C87.0676 12.1808 87.1143 12.068 87.1143 11.9359V11.2595Z" fill="#222222"/>
<path d="M97.0656 6C97.1356 6 97.2017 6.02332 97.2639 6.06997C97.3339 6.11662 97.3805 6.17104 97.4039 6.23324L99.0832 10.4082C99.1066 10.4704 99.126 10.552 99.1415 10.6531C99.1649 10.7464 99.1765 10.828 99.1765 10.898V13.7434C99.1765 13.8134 99.1493 13.8756 99.0949 13.93C99.0482 13.9767 98.9899 14 98.92 14H97.8237C97.7537 14 97.6915 13.9767 97.6371 13.93C97.5904 13.8756 97.5671 13.8134 97.5671 13.7434V12.4023H94.3716V13.7434C94.3716 13.8134 94.3444 13.8756 94.29 13.93C94.2434 13.9767 94.185 14 94.1151 14H93.0305C92.9605 14 92.8983 13.9767 92.8439 13.93C92.7972 13.8756 92.7739 13.8134 92.7739 13.7434V10.898C92.7739 10.828 92.7817 10.7464 92.7972 10.6531C92.8206 10.552 92.8439 10.4704 92.8672 10.4082L94.5349 6.23324C94.566 6.17104 94.6127 6.11662 94.6749 6.06997C94.7448 6.02332 94.8148 6 94.8848 6H97.0656ZM94.43 10.8047H97.5088L96.226 7.59767H95.7128L94.43 10.8047Z" fill="#222222"/>
<path d="M109.291 14H103.833C103.763 14 103.701 13.9767 103.646 13.93C103.6 13.8756 103.576 13.8134 103.576 13.7434V6.25656C103.576 6.18659 103.6 6.12828 103.646 6.08163C103.701 6.02721 103.763 6 103.833 6H104.917C104.987 6 105.046 6.02721 105.092 6.08163C105.147 6.12828 105.174 6.18659 105.174 6.25656V12.4023H109.291C109.361 12.4023 109.419 12.4295 109.466 12.484C109.512 12.5306 109.536 12.5889 109.536 12.6589V13.7434C109.536 13.8134 109.512 13.8756 109.466 13.93C109.419 13.9767 109.361 14 109.291 14Z" fill="#222222"/>
<path d="M119.755 14H114.297C114.227 14 114.165 13.9767 114.111 13.93C114.064 13.8756 114.041 13.8134 114.041 13.7434V6.25656C114.041 6.18659 114.064 6.12828 114.111 6.08163C114.165 6.02721 114.227 6 114.297 6H115.382C115.452 6 115.51 6.02721 115.557 6.08163C115.611 6.12828 115.638 6.18659 115.638 6.25656V12.4023H119.755C119.825 12.4023 119.883 12.4295 119.93 12.484C119.977 12.5306 120 12.5889 120 12.6589V13.7434C120 13.8134 119.977 13.8756 119.93 13.93C119.883 13.9767 119.825 14 119.755 14Z" fill="#222222"/>
</svg>
